<svg xmlns="http://www.w3.org/2000/svg" viewBox="0 0 14.1 14.1"><path d="M13.5 4.3c-.7-1.7-2-3-3.7-3.7C8.9.2 8 0 7 0c-.9 0-1.8.2-2.7.6-1.7.7-3 2-3.7 3.7C.2 5.2 0 6.1 0 7c0 1 .2 1.9.6 2.8.7 1.7 2 3 3.7 3.7.9.4 1.8.5 2.7.5s1.9-.2 2.7-.6c1.7-.7 3-2 3.7-3.7.5-.8.6-1.7.6-2.7 0-.9-.1-1.8-.5-2.7zm-1.1 5.8c-.5.9-1.3 1.7-2.3 2.2-.9.5-2 .8-3.1.8-.8 0-1.6-.2-2.4-.5-.8-.3-1.4-.8-2-1.3-.5-.5-1-1.2-1.3-2C1 8.7.9 7.9.9 7c0-1.1.3-2.1.8-3.1C2.3 3 3 2.3 4 1.7c.9-.6 2-.8 3.1-.8s2.1.3 3.1.8c.9.6 1.6 1.3 2.2 2.3.6.9.8 2 .8 3.1 0 1-.3 2.1-.8 3z"/><path d="M7.5 7V3c0-.2-.2-.4-.4-.4-.3 0-.5.2-.5.4v4.1c0 .1 0 .3.1.3L9 9.7c.2.2.4.2.6 0 .2-.2.2-.4 0-.6L7.5 7z"/></svg>