<svg id="Capa_1" xmlns="http://www.w3.org/2000/svg" viewBox="0 0 96.8 96.8"><style>.st0{fill:#8290ad}</style><path class="st0" d="M62.6 0H39.5C29.2 0 22.1 2.3 15.7 7.6c-5 4.4-8.1 10.7-8.1 16.9 0 9.6 7.3 19.8 20.9 19.8 1.3 0 2.8-.1 4-.3l-.2.5c-.5 1.3-1.1 2.5-1.1 4.5 0 3.8 1.8 6.1 3.6 8.3l.2.3h-.4c-5.6.4-16 1.1-23.7 5.8-9 5.4-9.7 13.1-9.7 15.4 0 9 8.4 18.1 27.1 18.1 21.8 0 33.1-12 33.1-23.9 0-8.8-5.1-13.1-10.6-17.7l-4.6-3.6c-1.4-1.2-3.2-2.6-3.2-5.4 0-2.7 1.8-4.4 3.3-6l.2-.2c5-3.9 10.6-8.4 10.6-18 0-9.7-6-14.6-8.9-17H56c.1 0 .2 0 .3-.1L62.9.8c.2-.1.3-.3.2-.6-.1-.1-.3-.2-.5-.2zm-28 91.5c-13.3 0-22.2-6.2-22.2-15.4 0-6 3.6-10.4 10.8-13 5.7-1.9 13.2-2 13.2-2 1.3 0 1.9 0 2.9.1C48.6 67.8 53 71.3 53 77.9c.1 8.4-7 13.6-18.4 13.6zm-.1-50.7c-11.1 0-15.8-14.6-15.8-22.5 0-4 .9-7 2.8-9.4 2-2.5 5.5-4.2 8.8-4.2 10.2 0 15.9 13.7 15.9 23.2 0 1.5 0 6.1-3.1 9.2-2.2 2.2-5.6 3.7-8.6 3.7zM95 45.2H82.8V33.1c0-.3-.2-.5-.5-.5h-5.2c-.3 0-.5.2-.5.5v12.1H64.5c-.3 0-.5.2-.5.5V51c0 .3.2.5.5.5h12.1v12.2c0 .3.2.5.5.5h5.2c.3 0 .5-.2.5-.5V51.5H95c.3 0 .5-.2.5-.5v-5.3c0-.3-.2-.5-.5-.5z"/></svg>